# xmcd CD database file
#
# Track frame offsets:
#	150
#	8842
#	20267
#	31656
#	40992
#	53211
#	66932
#	81655
#	94480
#	107467
#	116695
#	127206
#	137189
#	149917
#	163825
#
# Disc length: 2335 seconds
#
# Revision: 0
# Processed by: cddbd v1.5.2PL0 Copyright (c) Steve Scherf et al.
# Submitted via: CDex 1.51
#
DISCID=de091d0f
DTITLE=Various Artist - Golden Age of Country: Don't Worry 1
DYEAR=1900
DGENRE=Country
TTITLE0=Blue Blue Day - Don Gibson
TTITLE1=Loose Talk - Carl Smith
TTITLE2=Send Me the Pillow You Dream On - Hank Locklin
TTITLE3=Don't Be Cruel - Elvis Presley
TTITLE4=Understand Your Man - Johnny Cash
TTITLE5=All I Have to Offer You (Is Me) - Charley Pride
TTITLE6=Don't Worry - Mary Robbins
TTITLE7=North to Alaska - Johnny Horton
TTITLE8=Distant Drums - Jim Reeves
TTITLE9=Your Good Girl's Gonna Go Bad - Tammy Wynette
TTITLE10=Baby, Baby (I Know You're a Lady) - David Houston
TTITLE11=I Wanna Play House with You - Eddy Arnold, the Tennessee Plowboy and His Guitar
TTITLE12=A Satisfied Mind - Porter Wagoner
TTITLE13=I Want to Be with You Always - Lefty Frizzell
TTITLE14=(Now and Then, There's) A Fool Such as I - Hank Snow, the Singing Ranger and His Rainbow Ranch Boys
EXTD=
EXTT0=
EXTT1=
EXTT2=
EXTT3=
EXTT4=
EXTT5=
EXTT6=
EXTT7=
EXTT8=
EXTT9=
EXTT10=
EXTT11=
EXTT12=
EXTT13=
EXTT14=
PLAYORDER=
